HIERARCHY
ROOT Hips
{
  OFFSET -31.5692 30.0904 122.763
  CHANNELS 6 Xposition Yposition Zposition Zrotation Xrotation Yrotation
  JOINT LeftUpLeg
  {
    OFFSET 8.64259 1.95398 -2.38835
    CHANNELS 3 Zrotation Xrotation Yrotation
    JOINT LeftLeg
    {
      OFFSET 43.7702 0 0
      CHANNELS 3 Zrotation Xrotation Yrotation
      JOINT LeftFoot
      {
        OFFSET 40.6238 0 0
        CHANNELS 3 Zrotation Xrotation Yrotation
        JOINT LeftToeBase
        {
          OFFSET 12.7242 0 0
          CHANNELS 3 Zrotation Xrotation Yrotation
          End Site
          {
            OFFSET 0 0 0
          }
        }
      }
    }
  }
  JOINT RightUpLeg
  {
    OFFSET -8.2249 1.95398 -2.59336
    CHANNELS 3 Zrotation Xrotation Yrotation
    JOINT RightLeg
    {
      OFFSET 43.5653 0 0
      CHANNELS 3 Zrotation Xrotation Yrotation
      JOINT RightFoot
      {
        OFFSET 40.6238 0 0
        CHANNELS 3 Zrotation Xrotation Yrotation
        JOINT RightToeBase
        {
          OFFSET 12.7242 0 0
          CHANNELS 3 Zrotation Xrotation Yrotation
          End Site
          {
            OFFSET 0 0 0
          }
        }
      }
    }
  }
  JOINT Spine
  {
    OFFSET 0.165834 0.87714 6.61349
    CHANNELS 3 Zrotation Xrotation Yrotation
    JOINT Spine1
    {
      OFFSET 7.38963 1.71661e-005 0
      CHANNELS 3 Zrotation Xrotation Yrotation
      JOINT Spine2
      {
        OFFSET 11.9445 1.14441e-005 0
        CHANNELS 3 Zrotation Xrotation Yrotation
        JOINT Spine3
        {
          OFFSET 14.7254 4.19617e-005 0
          CHANNELS 3 Zrotation Xrotation Yrotation
          JOINT Spine4
          {
            OFFSET 10.9679 0 0
            CHANNELS 3 Zrotation Xrotation Yrotation
            JOINT RightShoulder
            {
              OFFSET 2.46616 -1.6653 3.69651
              CHANNELS 3 Zrotation Xrotation Yrotation
              JOINT RightArm
              {
                OFFSET 13.0012 0 0
                CHANNELS 3 Zrotation Xrotation Yrotation
                JOINT RightForeArm
                {
                  OFFSET 28.7848 1.62311e-005 0
                  CHANNELS 3 Zrotation Xrotation Yrotation
                  JOINT RightHand
                  {
                    OFFSET 26.5688 1.62095e-005 0
                    CHANNELS 3 Zrotation Xrotation Yrotation
                    End Site
                    {
                      OFFSET 0 0 0
                    }
                  }
                }
              }
            }
            JOINT LeftShoulder
            {
              OFFSET 2.38034 -1.29275 -3.7523
              CHANNELS 3 Zrotation Xrotation Yrotation
              JOINT LeftArm
              {
                OFFSET 16.3182 6.07031e-005 0
                CHANNELS 3 Zrotation Xrotation Yrotation
                JOINT LeftForeArm
                {
                  OFFSET 27.0901 0 0
                  CHANNELS 3 Zrotation Xrotation Yrotation
                  JOINT LeftHand
                  {
                    OFFSET 24.5451 1.51738e-005 0
                    CHANNELS 3 Zrotation Xrotation Yrotation
                    End Site
                    {
                      OFFSET 0 0 0
                    }
                  }
                }
              }
            }
            JOINT Neck
            {
              OFFSET 5.0226 -0.0266342 0
              CHANNELS 3 Zrotation Xrotation Yrotation
              JOINT Head
              {
                OFFSET 6.69364 2.86102e-005 0
                CHANNELS 3 Zrotation Xrotation Yrotation
                End Site
                {
                  OFFSET 0 0 0
                }
              }
            }
          }
        }
      }
    }
  }
}
MOTION
Frames:	16
Frame Time:	0.0416667
10.0408 101.421 21.6928 -156.351 -82.7257 -157.214 -173.956 -3.23764 87.9942 -12.7332 6.77115 0.136635 70.6233 6.13687 -1.48381 17.0074 -9.8191 8.3059 171.919 -4.64288 89.624 -13.3812 -1.019 0.437886 69.7711 -5.87129 1.95304 23.4784 1.36992 4.38861 0.20918 7.64935 -90.1484 11.5756 0.346701 -0.331522 -0.0953211 0.331768 -0.346465 -22.6307 0.430304 -0.211997 -2.61805 0.430304 -0.212001 90.6044 -30.647 -105.325 39.0981 -8.42111 -6.94767 6.44329 -33.2726 -14.182 -23.3377 -0.157924 -10.7816 -88.6904 -55.0565 81.6174 -21.7591 12.649 -13.3964 -4.54702 14.9404 -0.250608 5.74008 -0.311549 -14.1875 7.45494 -0.853988 -1.12227 -5.6439 -0.627518 1.01384 
10.0286 101.435 21.6431 -154.503 -82.9869 -155.159 -173.969 -2.70458 88.1409 -12.9856 6.58996 0.189773 70.6883 6.10431 -1.52906 17.2879 -9.87363 8.75654 172.143 -4.36764 89.8804 -13.2618 -0.953857 0.476902 69.6107 -5.80763 2.07224 23.514 1.38514 4.26804 0.229596 7.618 -90.179 11.6385 0.372921 -0.395411 -0.0325012 0.355147 -0.411458 -22.5678 0.474508 -0.26506 -2.55519 0.474512 -0.265061 90.5829 -30.4796 -105.428 39.3297 -8.19635 -6.84068 6.21816 -33.4464 -14.1518 -23.4022 -0.264809 -10.1719 -88.5892 -55.1008 81.7687 -21.635 12.7995 -13.6083 -4.74769 14.6879 -0.161522 4.93282 -0.216566 -14.0655 7.71026 -0.838279 -0.923835 -5.92986 -0.648551 0.803541 
9.98494 101.431 21.6651 -155.03 -82.9149 -155.654 -173.942 -2.8003 88.1983 -13.022 6.54706 0.219117 70.7669 6.1235 -1.62047 16.8707 -9.96016 8.41728 172.097 -4.46592 89.9108 -13.2298 -0.962516 0.520917 69.5443 -5.81416 2.04012 23.5626 1.38459 4.18696 0.210886 7.62409 -90.1845 11.6262 0.333108 -0.402247 -0.0448043 0.315087 -0.416526 -22.58 0.438604 -0.283534 -2.56738 0.438601 -0.28354 90.4914 -30.3343 -105.661 39.3741 -8.22223 -6.81089 6.41372 -33.3381 -13.8876 -23.6341 -0.13097 -10.8911 -88.5425 -55.1928 81.8507 -21.4702 12.9686 -13.479 -4.84293 14.7878 -0.311893 5.57282 -0.281118 -14.0023 7.70076 -0.771949 -0.764538 -5.95309 -0.615652 0.755696 
9.97293 101.446 21.7157 -155.574 -82.7613 -156.345 -173.968 -3.15112 88.0818 -12.7248 6.35366 0.207637 70.6412 6.08098 -1.69834 16.9537 -9.77 8.14369 172.001 -4.51954 89.7814 -13.3964 -1.06297 0.497336 69.5256 -5.76832 1.68563 23.5851 1.33747 4.33594 0.218765 7.64142 -90.1708 11.5915 0.355279 -0.377033 -0.0794266 0.338339 -0.392313 -22.6148 0.452159 -0.25283 -2.60209 0.452169 -0.252825 90.5031 -30.4281 -105.604 39.1012 -8.37772 -6.95271 6.78801 -33.2899 -13.5862 -23.2324 -0.141613 -10.9063 -88.7132 -55.1891 81.6086 -21.4375 12.9315 -13.5489 -4.86868 15.1352 -0.0368912 5.36667 -0.280228 -14.422 7.61666 -0.800013 -0.638681 -5.86967 -0.665687 0.591867 
9.93514 101.444 21.716 -155.005 -82.7838 -155.692 -173.983 -3.05211 88.1401 -12.8404 6.42181 0.26206 70.7568 6.13375 -1.63882 16.987 -9.89059 8.42197 172.124 -4.68277 89.9274 -13.0652 -1.08276 0.473192 69.5059 -5.84784 1.50879 23.3684 1.38731 4.50543 0.226042 7.63597 -90.175 11.6024 0.367717 -0.386781 -0.0685023 0.350347 -0.402602 -22.6038 0.466963 -0.258375 -2.59119 0.466959 -0.258393 90.518 -30.4647 -105.561 39.1935 -8.3556 -6.89122 6.35014 -33.5905 -14.1086 -23.6347 -0.264869 -10.1618 -88.7049 -54.9363 81.5759 -21.9174 12.7551 -13.4769 -4.56266 14.7583 -0.222741 4.28578 -0.20367 -14.9295 7.78439 -0.890473 -0.773375 -6.0925 -0.72818 0.660026 
9.93398 101.439 21.7249 -155.704 -82.7848 -156.418 -173.996 -3.10468 88.11 -12.8256 6.60636 0.281081 70.6577 6.09057 -1.55428 17.1382 -10.0092 8.84034 172.035 -4.7405 89.8139 -13.0634 -0.734455 0.504332 69.5467 -5.74676 2.30978 23.6067 1.38417 4.11302 0.218841 7.63909 -90.1616 11.5962 0.359686 -0.359157 -0.0747584 0.343539 -0.374641 -22.6101 0.450994 -0.234446 -2.59746 0.451 -0.234451 90.4274 -30.6019 -105.69 39.1294 -8.3296 -6.86757 6.64688 -33.5257 -13.6828 -23.4353 -0.125121 -11.0068 -88.7529 -54.663 81.4593 -22.1069 12.6607 -13.4524 -4.55608 15.1475 -0.130786 5.82206 -0.30285 -14.0435 7.68756 -0.884387 -0.938893 -5.90312 -0.6894 0.741102 
9.90971 101.458 21.7775 -155.659 -82.5934 -156.475 -173.856 -3.41921 88.1508 -12.6177 6.85581 0.115748 70.4962 6.12058 -1.37569 17.1259 -9.80521 8.42255 172.021 -5.0113 89.731 -13.0355 -1.41692 0.391015 69.4955 -5.757 1.70003 23.6635 1.34127 4.18304 0.235141 7.65959 -90.1425 11.5552 0.401131 -0.325255 -0.115696 0.386432 -0.342608 -22.6512 0.480336 -0.18966 -2.63855 0.480334 -0.189667 90.4625 -30.8072 -105.547 38.9326 -8.42895 -7.04815 6.96371 -33.6247 -13.3974 -23.3372 -0.232687 -10.4 -88.8416 -54.4026 81.2863 -22.3777 12.6455 -13.4619 -4.40002 15.0501 -0.0871648 5.20427 -0.26052 -14.3594 7.79154 -1.00648 -1.44606 -6.06282 -0.716019 1.27347 
9.88123 101.454 21.6903 -154.69 -82.7924 -155.341 -173.937 -2.9508 88.2294 -12.9665 6.59255 0.257559 70.6821 6.07688 -1.66308 17.1893 -9.97193 8.82918 172.251 -4.78947 90.0252 -12.8215 -0.990114 0.377089 69.4326 -5.80092 1.83521 23.4835 1.40362 4.24493 0.237524 7.62858 -90.1793 11.6173 0.388565 -0.397524 -0.0536745 0.370689 -0.41425 -22.5891 0.490066 -0.262372 -2.5764 0.490068 -0.262369 90.4893 -30.5024 -105.604 39.1743 -8.34978 -6.82649 6.60348 -34.6287 -13.6717 -23.7653 -0.331101 -9.99076 -88.8799 -54.6265 81.2721 -22.3115 12.5401 -13.52 -4.49537 15.3437 -0.0192317 5.63742 -0.283927 -14.1955 7.65867 -0.944671 -0.936921 -6.01819 -0.751885 0.830755 
9.8669 101.433 21.6754 -153.197 -82.8577 -153.738 -173.858 -2.8237 88.3448 -12.8916 6.53576 0.202979 70.722 6.14924 -1.44119 17.0405 -9.78784 8.28445 172.374 -4.65282 90.162 -12.8775 -0.848459 0.372339 69.4858 -5.78003 2.15079 23.4003 1.46386 4.15024 0.253078 7.61848 -90.166 11.6375 0.425667 -0.375021 -0.0334124 0.408748 -0.393404 -22.5689 0.518697 -0.229743 -2.55628 0.518692 -0.229764 90.375 -30.7836 -105.727 39.1231 -8.26938 -6.88846 6.64986 -34.0887 -13.5371 -22.2058 -0.328065 -10.1571 -88.7869 -54.0778 81.3063 -22.7002 12.6402 -13.5017 -4.39569 15.1095 -0.00712718 5.04285 -0.236355 -14.3499 7.66872 -1.0774 -1.69759 -5.94136 -0.734507 1.29275 
9.88188 101.457 21.7099 -155.035 -82.7738 -155.871 -173.943 -3.16525 88.0891 -12.6103 6.77741 0.163541 70.3793 6.0379 -1.37882 17.2988 -9.624 8.27475 172.068 -4.6522 89.7842 -13.1202 -1.32168 0.378192 69.4615 -5.74117 1.74353 23.6589 1.36316 4.10769 0.22783 7.63956 -90.1663 11.5953 0.375385 -0.370171 -0.0756804 0.358731 -0.386337 -22.6111 0.469272 -0.240239 -2.59842 0.469282 -0.240244 90.447 -30.4922 -105.692 39.0712 -8.41457 -6.91677 6.88691 -34.6453 -13.3861 -23.7651 -0.495728 -9.03188 -88.92 -54.658 81.2202 -21.7547 13.7097 -13.4586 -5.18059 13.6858 -0.448813 4.83625 -0.274858 -14.5675 7.17654 -1.01894 -1.30218 -4.95354 -0.758861 1.70034 
9.81072 101.448 21.6134 -152.189 -83.0036 -152.637 -173.762 -2.50367 88.5049 -13.0845 6.56869 0.139153 70.6987 6.00795 -1.79702 17.3711 -9.94049 8.99064 172.474 -4.40777 90.3226 -12.8441 -0.842794 0.410892 69.3288 -5.75365 2.00148 23.4275 1.41934 4.27955 0.273901 7.58905 -90.1799 11.6965 0.460429 -0.406747 0.0255667 0.442084 -0.426623 -22.51 0.561381 -0.249564 -2.49737 0.561389 -0.249561 90.3883 -30.7966 -105.696 39.1406 -8.3298 -6.71671 6.35149 -34.4087 -14.0485 -22.1205 -0.578281 -8.61413 -88.9398 -53.9498 81.0639 -22.748 12.854 -13.435 -4.71662 14.2887 0.025023 5.25221 -0.247362 -13.8925 6.90081 -1.22787 -2.04807 -4.84947 -0.820898 2.08091 
9.81091 101.43 21.633 -153.056 -82.8921 -153.667 -173.812 -2.73147 88.3485 -12.9557 6.54485 0.135537 70.6808 6.08605 -1.5132 17.2968 -9.72844 8.47968 172.163 -4.56265 90.043 -12.8715 -1.19835 0.542327 69.5118 -5.9063 1.8365 23.3493 1.49667 4.10768 0.266029 7.60868 -90.1644 11.6572 0.45212 -0.37474 -0.0137057 0.435176 -0.394279 -22.5493 0.543836 -0.221536 -2.53667 0.543834 -0.221534 90.4072 -30.733 -105.682 39.1236 -8.58479 -6.8105 6.52375 -34.2718 -14.1423 -21.9322 -0.548395 -8.80683 -88.8839 -53.8174 81.1201 -22.9828 12.7572 -13.4782 -4.58414 14.5673 0.0366371 5.07 -0.240735 -14.1803 6.94258 -1.2277 -2.1079 -4.88181 -0.809821 2.17667 
9.80973 101.435 21.6076 -152.835 -82.8666 -153.455 -173.783 -2.71188 88.3647 -12.98 6.58061 0.0899616 70.714 6.09252 -1.48799 17.0756 -9.86117 8.47188 172.33 -4.50082 90.1008 -12.9871 -0.752239 0.389524 69.5434 -5.80133 2.22233 23.4542 1.38122 4.38478 0.271421 7.62549 -90.1796 11.6236 0.455832 -0.405183 -0.0473312 0.437542 -0.424851 -22.5829 0.556515 -0.249461 -2.57026 0.556521 -0.249451 90.4406 -30.6619 -105.642 38.955 -8.53706 -6.78948 6.61001 -34.0227 -13.9701 -22.5927 -0.548332 -8.67795 -88.9988 -54.1455 81.015 -22.0589 13.8189 -13.3772 -5.42344 13.5092 -0.631103 5.75905 -0.303361 -13.5512 7.0864 -1.28713 -1.7967 -5.03894 -0.928479 1.99515 
9.79452 101.427 21.5176 -154.495 -83.0031 -155.166 -173.885 -2.62431 88.3043 -12.9427 6.56439 0.165622 70.6591 6.03615 -1.7157 17.0519 -9.83507 8.3915 172.225 -4.39112 90.0432 -13.0229 -0.62805 0.508814 69.4798 -5.7698 2.17527 23.4791 1.37954 4.34936 0.242416 7.61239 -90.1501 11.6497 0.411874 -0.342018 -0.0212552 0.396418 -0.359824 -22.5568 0.495617 -0.202425 -2.54414 0.495619 -0.202428 90.3973 -30.8504 -105.659 39.0709 -8.54124 -6.71689 6.32818 -33.8168 -14.3732 -23.57 -0.303387 -9.98289 -88.9074 -53.6268 81.0512 -22.9366 12.9465 -13.3496 -4.84263 14.3366 0.010455 4.93931 -0.235882 -14.1644 6.89024 -1.37044 -2.39337 -4.92844 -0.89799 2.42658 
9.79336 101.442 21.5111 -153.43 -83.0736 -154.034 -173.806 -2.45601 88.3878 -13.0359 6.6731 0.101571 70.626 5.98181 -1.6075 17.0147 -9.91366 8.50152 172.312 -4.32278 90.1399 -12.9112 -0.77796 0.487652 69.43 -5.80341 2.01559 23.2375 1.47289 4.38909 0.25112 7.61285 -90.1759 11.6488 0.4171 -0.393986 -0.0221028 0.399358 -0.411974 -22.5576 0.516224 -0.25042 -2.54492 0.516229 -0.250421 90.4182 -30.6963 -105.674 38.9953 -8.55667 -6.74339 6.22091 -33.984 -14.5234 -23.4147 -0.434472 -9.25502 -88.9311 -54.061 81.0966 -22.3466 13.4344 -13.3887 -5.09503 13.7954 -0.486819 4.49696 -0.200874 -14.1886 7.10753 -1.28539 -1.90018 -5.02786 -0.907177 2.11758 
9.79798 101.455 21.4735 -154.888 -83.0279 -155.636 -173.908 -2.6141 88.2351 -12.9046 6.55119 0.143982 70.5242 5.89195 -1.95551 17.3041 -9.87828 8.78556 172.24 -4.28778 90.0028 -13.1412 -0.74073 0.449811 69.5122 -5.7948 1.99173 23.3211 1.44258 4.36765 0.238729 7.63024 -90.1607 11.6139 0.399623 -0.361681 -0.0570058 0.383318 -0.378921 -22.5925 0.489842 -0.224855 -2.57983 0.489839 -0.224861 90.462 -30.7128 -105.582 38.9885 -8.58221 -6.79901 6.19369 -33.6745 -14.6062 -24.6926 -0.322488 -9.68542 -89.0578 -54.0777 80.9181 -22.3835 13.1655 -13.4537 -5.11766 14.1408 -0.21636 5.6297 -0.250201 -13.2962 7.05473 -1.36124 -1.96841 -4.95514 -0.967327 2.11192 
